<svg width="100" height="100" viewBox="0 0 100 100" fill="none" xmlns="http://www.w3.org/2000/svg">
<circle cx="50" cy="50" r="50" fill="#F5D7A3"/>
<path d="M61.5116 52.1989C64.5658 49.8091 66.7951 46.532 67.8894 42.8235C68.9836 39.115 68.8884 35.1595 67.6169 31.5074C66.3455 27.8552 63.961 24.688 60.7953 22.4463C57.6296 20.2046 53.84 19 49.9538 19C46.0676 19 42.278 20.2046 39.1123 22.4463C35.9466 24.688 33.5621 27.8552 32.2907 31.5074C31.0192 35.1595 30.924 39.115 32.0182 42.8235C33.1125 46.532 35.3418 49.8091 38.396 52.1989C33.1625 54.2841 28.5961 57.7427 25.1837 62.2059C21.7712 66.6691 19.6405 71.9695 19.0188 77.5423C18.9738 77.9492 19.0098 78.3608 19.1248 78.7539C19.2398 79.1469 19.4315 79.5135 19.6889 79.8329C20.2089 80.4778 20.9652 80.8909 21.7914 80.9813C22.6176 81.0717 23.4461 80.832 24.0946 80.3148C24.7431 79.7977 25.1585 79.0456 25.2494 78.2239C25.9335 72.1675 28.8373 66.574 33.406 62.5122C37.9747 58.4504 43.888 56.205 50.0161 56.205C56.1442 56.205 62.0575 58.4504 66.6262 62.5122C71.1949 66.574 74.0987 72.1675 74.7828 78.2239C74.8675 78.9852 75.2328 79.6883 75.8081 80.1975C76.3834 80.7067 77.128 80.986 77.8981 80.9813H78.2408C79.0574 80.8879 79.8038 80.4772 80.3173 79.8388C80.8308 79.2005 81.0698 78.3861 80.9823 77.5733C80.3576 71.9847 78.2155 66.6706 74.7854 62.2006C71.3554 57.7305 66.7668 54.2731 61.5116 52.1989ZM49.9538 49.9992C47.4892 49.9992 45.0799 49.2723 43.0307 47.9106C40.9815 46.5489 39.3843 44.6134 38.4411 42.3489C37.498 40.0844 37.2512 37.5926 37.732 35.1886C38.2128 32.7846 39.3996 30.5764 41.1424 28.8432C42.8851 27.1101 45.1055 25.9298 47.5227 25.4516C49.94 24.9734 52.4455 25.2188 54.7225 26.1568C56.9995 27.0948 58.9457 28.6832 60.3149 30.7212C61.6842 32.7592 62.415 35.1552 62.415 37.6063C62.415 40.8931 61.1022 44.0453 58.7652 46.3694C56.4283 48.6935 53.2587 49.9992 49.9538 49.9992Z" fill="#6B3E1D"/>
</svg>
