<svg width="433" height="111" viewBox="0 0 433 111" fill="none" xmlns="http://www.w3.org/2000/svg">
<path d="M114.806 2.10172C112.617 2.72528 102.094 5.37541 99.2797 6.77842L87.5537 13.014L102.407 26.5011C109.442 32.8926 112.1 31.2532 114.133 30.1619C120.855 26.5765 128.985 29.8501 132.112 37.177C135.552 45.595 128.204 53.2967 115.696 54.3248C112.569 55.4161 107.253 75.0582 107.097 80.0467C96.1527 83.944 122.732 86.594 127.422 86.2823C138.21 85.3469 153.688 74.7464 157.128 66.796C170.417 41.8536 154.782 16.1318 137.584 7.55787C131.018 4.12829 120.747 0.0751572 114.806 2.10172Z" fill="#F5D7A3"/>
<path d="M107.583 62.6967C103.865 69.9298 102.919 76.8498 105.47 78.1531C108.02 79.4564 113.101 74.6494 116.819 67.4164C120.537 60.1833 121.483 53.2633 118.933 51.96C116.382 50.6567 111.301 55.4637 107.583 62.6967Z" fill="#E9B277"/>
<path d="M103.771 79.1692C102.116 72.9213 97.8383 74.7457 114.079 70.4687C114.079 70.4687 131.277 82.9397 160.2 50.9824C161.856 57.2302 149.081 81.001 132.841 85.278C116.6 89.555 105.426 85.4171 103.771 79.1692Z" fill="#E9B277"/>
<path d="M58.63 17.6456C51.5945 20.6076 39.0868 31.9875 35.1781 39.4702C32.8329 43.991 29.8624 50.6943 29.7061 58.177C29.7061 68.3098 31.2695 69.8687 35.9599 78.4427C43.3082 86.0813 51.4381 96.5259 60.1935 97.9289C71.4504 99.6437 92.8699 94.6552 104.752 78.4427C110.224 71.1158 113.351 57.3975 111.788 48.0441C111.788 35.1053 104.127 24.193 93.8079 19.2045C85.6779 15.3073 66.4473 14.2161 58.63 17.6456ZM78.955 41.0291C82.7073 42.588 80.1574 40.3424 85.2089 48.0441C85.2089 53.5003 85.2573 55.5269 80.0978 60.5153C75.0948 65.5038 74.1083 66.7509 68.7925 66.7509C63.3204 66.7509 64.4148 67.3745 60.1935 62.0742C59.4602 55.0592 60.1935 57.3975 62.5387 49.603C71.1377 43.3675 71.4504 38.2231 78.955 41.0291Z" fill="#F5D7A3"/>
<path d="M57.0662 60.7972C62.2361 65.4739 59.6311 46.6211 66.4469 42.0904C72.5907 38.0065 89.899 49.8849 85.2085 39.7521C81.0672 34.1655 71.0883 33.2476 63.3201 38.9726C55.552 44.6976 52.9249 55.2107 57.0662 60.7972Z" fill="#E9B277"/>
<path d="M73.4284 98.5409C51.8436 99.5725 34.9122 89.3458 33.9892 70.1446C31.644 66.2473 46.3713 90.207 67.9563 89.1755C89.5411 88.1438 102.781 63.4285 112.944 49.3984C120.761 61.8696 95.0132 97.5092 73.4284 98.5409Z" fill="#E9B277"/>
<path d="M114.168 0.275176C104.796 1.08903 95.5457 4.91717 88.4717 10.9156L86.4765 12.6036L84.1185 12.061C81.5 11.5 73.5 11 69.5 11.5C67.8434 11.7071 66.5815 11.8842 64.5 12.1816C61 12.6816 62.6544 12.9954 47.146 13.2064C32.9374 13.4174 23.1427 13.8394 22.6891 14.2614C22.6287 14.3519 22.7496 14.4121 22.9915 14.4121C23.2333 14.4121 24.2913 14.5629 25.3797 14.7136C28.8563 15.1958 37.1699 15.6782 48.8692 16.1001L54.4014 16.3111L52.3759 17.4866C49.1109 19.3857 46.5414 21.3148 43.9717 23.7866L41.5533 26.1075L24.9262 26.2883C10.0224 26.4391 4.70173 26.6502 1.13447 27.253C-4.09548 28.097 9.50845 29.4233 26.5285 29.6945L38.0767 29.8754L37.6233 30.5084C35.7792 33.0103 33.0584 37.3207 32.3328 38.9483L31.4259 40.9378L24.8356 40.9679C21.238 40.9679 18.0034 41.0282 17.6709 41.0885C17.3383 41.1186 15.1314 41.2694 12.7734 41.3598C6.99928 41.631 1.52747 42.2641 1.89024 42.6257C1.92048 42.6861 3.19018 42.9272 4.67149 43.1684C8.23875 43.7712 13.6199 44.1932 22.4776 44.5549C26.468 44.7357 29.7329 44.8865 29.7935 44.9468C29.8236 44.9769 29.5214 46.2128 29.1585 47.7199C28.7656 49.1968 28.3424 51.337 28.2517 52.4222L28.04 54.4116L21.752 54.6226C9.56891 55.0145 6.99928 55.9188 14.7989 57.0641C16.9453 57.3957 25.6215 58.1192 27.5261 58.1192C27.6168 58.1192 27.7982 59.7167 27.8888 61.6459C28.4633 71.7136 32.7862 80.6961 40.7069 88.2619C46.36 93.6876 52.9503 97.4856 59.843 99.3243C64.1056 100.44 71.5424 100.621 76.7421 99.7463C83.1209 98.6611 90.2554 95.9181 95.0621 92.6929C97.3898 91.1557 101.773 87.4782 102.529 86.4232L103.134 85.6094L105.069 86.4835C109.724 88.5935 115.68 89.769 121.726 89.769C130.281 89.769 138.171 87.207 145.518 82.0224C148.631 79.7918 153.498 74.9388 155.766 71.7436C159.363 66.74 162.265 59.8372 163.444 53.5374C164.201 49.619 164.17 40.0335 163.444 36.3259C161.66 27.4941 157.641 19.9584 151.292 13.6586C143.401 5.76115 133.607 1.26989 122.089 0.245033C118.31 -0.0865375 118.038 -0.0865375 114.168 0.275176ZM125.142 4.9473C137.597 7.0573 147.755 14.3519 153.317 25.1731C156.462 31.262 157.337 35.2408 157.096 42.5957C156.884 49.5887 155.766 53.9293 152.743 59.6564C146.666 71.1709 133.758 78.9177 120.668 78.9177C117.01 78.9177 109.785 77.501 110.087 76.8378C110.147 76.7474 110.903 75.2402 111.78 73.522C114.561 68.1568 115.559 64.4491 116.556 56.2201C116.707 54.8336 116.738 54.8034 117.524 55.0145C117.977 55.1652 119.7 55.2556 121.363 55.2556C124.235 55.2556 124.507 55.1953 126.744 54.1402C129.344 52.9045 132.004 50.5835 133.214 48.5338C136.297 43.319 135.481 36.6575 131.249 32.106C129.284 30.0562 127.712 29.0314 125.051 28.1271C121.061 26.8007 117.342 27.2229 113.08 29.5137C111.871 30.1768 110.812 30.659 110.782 30.6289C106.248 23.877 102.257 19.9584 96.362 16.4618C95.2435 15.7987 93.5506 14.9547 92.6134 14.5629L90.9204 13.8696L93.2785 12.1816C99.1432 8.02187 106.399 5.24873 113.442 4.46502C116.194 4.13345 121.786 4.37459 125.142 4.9473ZM83.4231 16.5221C90.3763 17.9389 96.3318 21.1641 100.806 25.9267C110.117 35.8436 111.266 49.86 103.92 64.5998C97.6922 77.1393 86.0533 86.785 72.9027 90.2814C70.2727 91.0049 69.3961 91.0953 64.3777 91.0953C57.9082 91.1254 55.7014 90.7034 50.8947 88.4427C47.1158 86.6643 44.6973 84.9763 41.8254 82.1128C38.9535 79.219 37.2907 76.8679 35.4466 73.0096C33.4212 68.7294 32.6049 65.1726 32.4235 59.8976C32.0305 48.8352 35.5978 39.4005 43.609 30.3878C50.683 22.4301 60.5 16.4618 69.5 16C78.5 15.5382 80.5815 15.9494 83.4231 16.5221ZM125.535 33.3417C127.5 34.216 129.495 36.1752 130.281 37.9838C132.276 42.5957 129.737 48.172 124.598 50.5231C122.421 51.5179 119.096 51.5782 117.524 50.6739C116.556 50.1011 116.526 50.041 116.314 47.5391C116.103 44.6152 115.256 40.8474 114.108 37.6823C113.14 35.0299 113.261 34.8489 116.042 33.5829C119.217 32.1662 122.663 32.0757 125.535 33.3417ZM112.445 54.5021C111.75 62.7008 109.573 69.1816 105.492 75.4512C98.3875 86.2724 88.7136 93.1752 77.0747 95.6771C74.0516 96.3403 64.287 96.4307 62.7149 95.8579C61.8986 95.5264 61.9591 95.4961 63.4707 95.6469C65.5265 95.8277 70.0913 95.3153 73.2958 94.592C82.5163 92.4517 90.1042 88.2016 97.1783 81.2085C105.613 72.8891 110.54 63.2735 112.294 51.6686C112.687 49.2571 112.777 50.9451 112.445 54.5021ZM159.606 54.0801C157.7 61.6158 154.889 67.1921 150.506 72.1055C145.487 77.7119 139.562 81.6607 132.972 83.8309C125.142 86.3931 115.105 86.0615 107.941 82.9568L106.066 82.1429L106.701 81.4797L107.306 80.8468L110.087 81.5401C117.947 83.5295 125.565 83.198 133.516 80.5756C137.204 79.3397 139.23 78.345 142.827 75.9938C150.959 70.6585 157.217 61.8568 159.606 52.4222C159.787 51.7289 160.028 51.1863 160.119 51.2767C160.18 51.3671 159.969 52.6331 159.606 54.0801Z" fill="#6B3E1D"/>
<path d="M74.0209 38.3756C67.9445 39.8527 61.989 44.7961 59.2381 50.6136C56.6684 56.1298 57.3033 61.7967 60.931 65.5042C63.0773 67.7046 64.4982 68.217 68.4584 68.1869C71.3303 68.1869 72.0559 68.0663 73.8699 67.373C81.0346 64.5698 86.1738 58.6016 87.4133 51.6687C87.8366 49.3779 87.3528 45.8512 86.325 43.5301C85.3274 41.2995 83.0902 39.069 81.1554 38.436C79.402 37.8331 76.3789 37.803 74.0209 38.3756ZM80.309 43.6205C81.8507 44.3138 83.0902 46.0922 83.4531 48.0816C84.4809 53.5677 79.251 60.9527 72.6909 63.2736C64.7702 66.0769 59.2381 60.1689 62.8658 52.8141C66.0702 46.3032 75.3814 41.4202 80.309 43.6205Z" fill="#6B3E1D"/>
<path d="M101.571 111C131.792 111 156.292 108.906 156.292 106.323C156.292 103.74 131.792 101.646 101.571 101.646C71.3491 101.646 46.8496 103.74 46.8496 106.323C46.8496 108.906 71.3491 111 101.571 111Z" fill="#F0E7D5"/>
<path d="M39.8147 98.5289C53.8858 111 76.556 108.662 28.0887 108.662C15.581 108.662 6.98193 108.662 6.2002 102.426C6.2002 98.5518 17.1445 82.9399 22.6166 83.7194C26.5253 83.7194 29.6522 90.7344 39.8147 98.5289Z" fill="#F0E7D5"/>
<path d="M18.547 81.3592C15.4332 82.5348 12.6218 86.1218 12.1683 89.4374C12.0171 90.4322 11.866 90.6733 11.3521 90.6733C10.2033 90.6733 7.72435 92.06 6.54534 93.356C4.76172 95.3152 4.12686 97.0335 4.09664 99.897C4.0664 102.097 4.15709 102.459 4.97333 103.816C6.18257 105.745 8.44989 107.433 10.4149 107.855C12.4706 108.307 17.3378 108.608 18.0331 108.337C18.4262 108.156 17.8518 107.855 15.8565 107.222C10.1731 105.353 7.84527 103.213 7.84527 99.8066C7.84527 95.9483 11.0195 93.9589 14.9193 95.3455L16.0682 95.7372L15.8565 94.8028C15.1309 91.2461 15.403 89.1963 16.9448 87.0863C18.0936 85.4887 19.8469 84.6447 22.0539 84.6447C26.9513 84.6447 29.9139 89.0154 28.1604 93.6273L27.586 95.1043L30.3371 95.0742C32.7858 95.044 33.2695 95.1344 34.8416 95.888C37.8948 97.3951 39.0133 100.681 37.5018 103.725C37.1692 104.388 36.9275 105.021 36.9879 105.051C37.0484 105.112 37.9554 104.901 38.9832 104.539C43.1551 103.122 45.906 103.394 50.7732 105.654C57.4845 108.759 63.1377 109.211 68.1863 106.98C70.5141 105.956 69.849 105.624 64.9516 105.413C59.782 105.172 57.3635 104.599 52.5568 102.429C48.5059 100.56 46.4503 100.018 43.6387 100.018H41.4924L41.311 98.8419C41.0993 97.2143 40.2529 95.5564 38.953 94.2603C37.774 93.0848 35.0229 91.879 33.5719 91.879C32.7556 91.879 32.7254 91.7886 32.5439 90.1609C32.151 86.4231 29.2488 82.6252 25.8024 81.3592C23.6561 80.5453 20.633 80.5453 18.547 81.3592Z" fill="#6B3E1D"/>
<path d="M182.56 37.2303C186.191 34.4101 190.464 33 195.379 33C198.245 33 200.962 33.5612 203.529 34.6838C206.122 35.8064 208.402 37.3397 210.368 39.2839C212.334 41.2005 213.89 43.4731 215.037 46.1017C216.184 48.7029 216.757 51.482 216.757 54.4392V74.6873C216.757 75.8923 216.334 76.9188 215.487 77.7677C214.668 78.589 213.672 79 212.498 79C211.297 79 210.273 78.589 209.426 77.7677C208.607 76.9188 208.197 75.8923 208.197 74.6873V54.4392C208.197 52.6866 207.856 51.0302 207.174 49.4696C206.491 47.9087 205.563 46.5535 204.389 45.4035C203.242 44.2259 201.89 43.295 200.334 42.6106C198.778 41.926 197.126 41.5839 195.379 41.5839C193.604 41.5839 191.938 41.926 190.382 42.6106C188.853 43.2676 187.502 44.1851 186.328 45.3624C185.153 46.5397 184.225 47.9087 183.543 49.4696C182.887 51.0302 182.56 52.6866 182.56 54.4392V74.6873C182.56 75.8923 182.136 76.9188 181.29 77.7677C180.471 78.589 179.474 79 178.3 79C177.099 79 176.075 78.589 175.229 77.7677C174.41 76.9188 174 75.8923 174 74.6873V37.3124C174 36.1351 174.41 35.1218 175.229 34.2731C176.075 33.4242 177.099 33 178.3 33C179.474 33 180.471 33.4242 181.29 34.2731C182.136 35.1218 182.56 36.1077 182.56 37.2303ZM244.402 70.4158C245.112 70.4158 245.781 70.2791 246.409 70.0052C247.036 69.7315 247.569 69.3617 248.006 68.8964C248.47 68.4307 248.825 67.8969 249.071 67.2946C249.344 66.6646 249.48 66.0212 249.48 65.3642C249.48 64.6795 249.344 64.0361 249.071 63.4337C248.798 62.8041 248.429 62.2565 247.965 61.7908C247.501 61.3255 246.955 60.9557 246.327 60.682C245.726 60.4083 245.084 60.2714 244.402 60.2714H231.583V70.4158H244.402ZM231.583 51.7283H244.402C246.258 51.7283 248.006 52.0982 249.644 52.8375C251.31 53.5494 252.756 54.5212 253.985 55.7535C255.214 56.9855 256.183 58.4368 256.893 60.107C257.63 61.75 257.999 63.5022 257.999 65.3642C257.999 67.2534 257.63 69.0331 256.893 70.7033C256.183 72.3463 255.214 73.7837 253.985 75.016C252.756 76.248 251.31 77.2201 249.644 77.9321C248.006 78.644 246.258 79 244.402 79H227.323C226.723 79 226.163 78.8904 225.644 78.6714C225.126 78.4524 224.661 78.151 224.252 77.7677C223.87 77.3571 223.569 76.8914 223.351 76.3714C223.132 75.8511 223.023 75.3035 223.023 74.7285V37.2303C223.051 36.6554 223.173 36.1212 223.392 35.6286C223.61 35.1083 223.911 34.6564 224.293 34.2731C224.675 33.8898 225.112 33.5885 225.603 33.3695C226.122 33.1232 226.696 33 227.323 33C227.897 33 228.443 33.1093 228.962 33.3283C229.481 33.5473 229.931 33.8625 230.313 34.2731C230.723 34.6564 231.037 35.1083 231.255 35.6286C231.474 36.1486 231.583 36.6962 231.583 37.2712V51.7283ZM261.971 74.6873V37.3124C261.971 36.1077 262.381 35.0944 263.2 34.2731C264.046 33.4242 265.057 33 266.231 33C267.405 33 268.401 33.4242 269.22 34.2731C270.067 35.0944 270.504 36.1077 270.531 37.3124V74.6873C270.504 75.8923 270.067 76.9188 269.22 77.7677C268.401 78.589 267.405 79 266.231 79C265.057 79 264.046 78.589 263.2 77.7677C262.381 76.9188 261.971 75.8923 261.971 74.6873ZM276.388 37.3124C276.388 36.1077 276.797 35.0944 277.616 34.2731C278.463 33.4242 279.473 33 280.647 33C281.848 33 282.859 33.4242 283.678 34.2731C284.497 35.0944 284.906 36.1077 284.906 37.3124V60.682C284.906 61.9963 285.152 63.2421 285.644 64.4194C286.162 65.597 286.859 66.6373 287.732 67.5409C288.606 68.4172 289.63 69.1154 290.804 69.6357C292.005 70.1557 293.288 70.4158 294.654 70.4158C295.992 70.4158 297.248 70.1557 298.422 69.6357C299.596 69.1154 300.619 68.4172 301.493 67.5409C302.394 66.6646 303.09 65.6378 303.582 64.4605C304.101 63.2832 304.36 62.0236 304.36 60.682V37.3124C304.36 36.1077 304.769 35.0944 305.589 34.2731C306.435 33.4242 307.445 33 308.619 33C309.821 33 310.831 33.4242 311.65 34.2731C312.497 35.0944 312.92 36.1077 312.92 37.3124V60.682C312.92 62.0236 313.179 63.2832 313.698 64.4605C314.217 65.6378 314.913 66.6646 315.787 67.5409C316.66 68.4172 317.684 69.1154 318.858 69.6357C320.032 70.1557 321.288 70.4158 322.626 70.4158C323.964 70.4158 325.22 70.1695 326.394 69.6765C327.568 69.1565 328.592 68.4581 329.466 67.5821C330.367 66.6784 331.063 65.6378 331.554 64.4605C332.073 63.2832 332.332 62.0236 332.332 60.682V37.3124C332.332 36.1077 332.742 35.0944 333.561 34.2731C334.407 33.4242 335.417 33 336.592 33C337.793 33 338.803 33.4242 339.622 34.2731C340.469 35.0944 340.892 36.1077 340.892 37.3124V74.7285C340.892 75.9058 340.469 76.9188 339.622 77.7677C338.803 78.589 337.807 79 336.632 79C335.677 79 334.831 78.7398 334.093 78.2195C333.356 77.6719 332.851 76.9599 332.578 76.0839C329.657 78.0279 326.339 79 322.626 79C319.896 79 317.329 78.4659 314.927 77.3982C312.524 76.3029 310.421 74.66 308.619 72.4694C304.824 76.8229 300.169 79 294.654 79C292.169 79 289.807 78.5209 287.568 77.5622C285.357 76.5766 283.418 75.2623 281.753 73.6194C280.115 71.9494 278.804 70.0052 277.821 67.7873C276.865 65.542 276.388 63.1736 276.388 60.682V37.3124ZM347.568 37.2712C347.568 36.6962 347.677 36.1486 347.895 35.6286C348.114 35.1083 348.414 34.6564 348.796 34.2731C349.179 33.8625 349.629 33.5473 350.148 33.3283C350.666 33.1093 351.226 33 351.827 33C352.428 33 352.987 33.1093 353.506 33.3283C354.025 33.5473 354.475 33.8625 354.858 34.2731C355.24 34.6564 355.54 35.1083 355.759 35.6286C355.977 36.1486 356.086 36.6962 356.086 37.2712V51.8106L376.973 34.0677C377.765 33.3557 378.707 33 379.799 33C380.4 33 380.96 33.1093 381.479 33.3283C381.997 33.5473 382.448 33.8625 382.83 34.2731C383.212 34.6564 383.513 35.1083 383.731 35.6286C383.977 36.1486 384.1 36.6962 384.1 37.2712C384.1 38.4488 383.676 39.4618 382.83 40.3104L364.523 55.8767L382.871 71.6481C383.69 72.4694 384.1 73.4962 384.1 74.7285C384.1 75.3035 383.977 75.8511 383.731 76.3714C383.513 76.8914 383.212 77.3571 382.83 77.7677C382.448 78.151 381.997 78.4524 381.479 78.6714C380.96 78.8904 380.4 79 379.799 79C378.734 79 377.806 78.6575 377.014 77.9732L357.847 61.5445L356.086 63.0642V74.7285C356.086 75.3035 355.977 75.8511 355.759 76.3714C355.54 76.8914 355.24 77.3571 354.858 77.7677C354.475 78.151 354.025 78.4524 353.506 78.6714C352.987 78.8904 352.428 79 351.827 79C351.226 79 350.666 78.8904 350.148 78.6714C349.629 78.4524 349.179 78.151 348.796 77.7677C348.414 77.3571 348.114 76.8914 347.895 76.3714C347.677 75.8511 347.568 75.3035 347.568 74.7285V37.2712ZM428.7 79C427.471 79 426.461 78.589 425.669 77.7677C424.877 76.9464 424.468 75.9469 424.44 74.7696C422.556 76.248 420.563 77.3297 418.461 78.0141C416.358 78.6714 414.079 79 411.621 79C408.7 79 405.942 78.4385 403.348 77.3159C400.754 76.166 398.488 74.6189 396.55 72.6749C394.611 70.731 393.069 68.4581 391.922 65.8571C390.803 63.2559 390.243 60.4903 390.243 57.5605V37.2712C390.243 36.0939 390.653 35.0944 391.472 34.2731C392.318 33.4242 393.342 33 394.543 33C395.717 33 396.714 33.4242 397.533 34.2731C398.379 35.0944 398.803 36.0939 398.803 37.2712V57.5605C398.803 59.3404 399.13 61.0106 399.785 62.5713C400.468 64.1319 401.383 65.5012 402.529 66.6785C403.703 67.8284 405.069 68.7456 406.625 69.4302C408.181 70.0875 409.847 70.4158 411.621 70.4158C413.369 70.4158 415.021 70.0875 416.577 69.4302C418.133 68.7456 419.498 67.8146 420.672 66.6373C421.847 65.46 422.761 64.1046 423.417 62.5713C424.099 61.0106 424.44 59.3404 424.44 57.5605V37.2712C424.44 36.0939 424.85 35.0944 425.669 34.2731C426.515 33.4242 427.539 33 428.741 33C429.915 33 430.911 33.4242 431.73 34.2731C432.577 35.0944 433 36.0939 433 37.2712V74.7285C433 75.9058 432.577 76.9188 431.73 77.7677C430.911 78.589 429.901 79 428.7 79Z" fill="#6B3E1D"/>
</svg>
