<svg width="66" height="39" viewBox="0 0 66 39" fill="none" xmlns="http://www.w3.org/2000/svg">
<path d="M3.3 6.5H62.7C63.5752 6.5 64.4146 6.15759 65.0335 5.5481C65.6523 4.9386 66 4.11195 66 3.25C66 2.38805 65.6523 1.5614 65.0335 0.951904C64.4146 0.34241 63.5752 0 62.7 0H3.3C2.42479 0 1.58542 0.34241 0.966547 0.951904C0.347677 1.5614 0 2.38805 0 3.25C0 4.11195 0.347677 4.9386 0.966547 5.5481C1.58542 6.15759 2.42479 6.5 3.3 6.5ZM62.7 32.5H3.3C2.42479 32.5 1.58542 32.8424 0.966547 33.4519C0.347677 34.0614 0 34.888 0 35.75C0 36.612 0.347677 37.4386 0.966547 38.0481C1.58542 38.6576 2.42479 39 3.3 39H62.7C63.5752 39 64.4146 38.6576 65.0335 38.0481C65.6523 37.4386 66 36.612 66 35.75C66 34.888 65.6523 34.0614 65.0335 33.4519C64.4146 32.8424 63.5752 32.5 62.7 32.5ZM62.7 16.25H3.3C2.42479 16.25 1.58542 16.5924 0.966547 17.2019C0.347677 17.8114 0 18.638 0 19.5C0 20.362 0.347677 21.1886 0.966547 21.7981C1.58542 22.4076 2.42479 22.75 3.3 22.75H62.7C63.5752 22.75 64.4146 22.4076 65.0335 21.7981C65.6523 21.1886 66 20.362 66 19.5C66 18.638 65.6523 17.8114 65.0335 17.2019C64.4146 16.5924 63.5752 16.25 62.7 16.25Z" fill="#6B3E1D"/>
</svg>
