<svg width="279" height="68" viewBox="0 0 279 68" fill="none" xmlns="http://www.w3.org/2000/svg">
<path d="M115.585 21.7589C117.955 19.9196 120.743 19 123.95 19C125.82 19 127.593 19.366 129.268 20.0981C130.96 20.8303 132.448 21.8302 133.731 23.0982C135.013 24.3482 136.029 25.8303 136.777 27.5446C137.525 29.241 137.899 31.0535 137.899 32.9821V46.1874C137.899 46.9732 137.623 47.6427 137.071 48.1963C136.537 48.732 135.886 49 135.12 49C134.336 49 133.668 48.732 133.116 48.1963C132.581 47.6427 132.314 46.9732 132.314 46.1874V32.9821C132.314 31.8391 132.091 30.7588 131.646 29.741C131.201 28.723 130.595 27.8392 129.829 27.0893C129.081 26.3213 128.199 25.7141 127.183 25.2678C126.168 24.8213 125.09 24.5982 123.95 24.5982C122.792 24.5982 121.705 24.8213 120.689 25.2678C119.692 25.6963 118.81 26.2946 118.044 27.0624C117.278 27.8302 116.672 28.723 116.227 29.741C115.799 30.7588 115.585 31.8391 115.585 32.9821V46.1874C115.585 46.9732 115.309 47.6427 114.757 48.1963C114.222 48.732 113.572 49 112.806 49C112.022 49 111.354 48.732 110.802 48.1963C110.267 47.6427 110 46.9732 110 46.1874V21.8124C110 21.0446 110.267 20.3838 110.802 19.8303C111.354 19.2766 112.022 19 112.806 19C113.572 19 114.222 19.2766 114.757 19.8303C115.309 20.3838 115.585 21.0268 115.585 21.7589ZM155.938 43.4016C156.401 43.4016 156.838 43.3125 157.247 43.1338C157.657 42.9553 158.005 42.7141 158.289 42.4107C158.592 42.107 158.824 41.7589 158.984 41.366C159.162 40.9552 159.252 40.5355 159.252 40.1071C159.252 39.6606 159.162 39.2409 158.984 38.8481C158.806 38.4375 158.566 38.0803 158.263 37.7766C157.96 37.4731 157.604 37.232 157.194 37.0535C156.802 36.875 156.383 36.7857 155.938 36.7857H147.573V43.4016H155.938ZM147.573 31.2141H155.938C157.149 31.2141 158.289 31.4553 159.358 31.9375C160.445 32.4018 161.389 33.0356 162.191 33.8392C162.993 34.6427 163.625 35.5892 164.089 36.6785C164.57 37.75 164.81 38.8928 164.81 40.1071C164.81 41.3392 164.57 42.4998 164.089 43.5891C163.625 44.6606 162.993 45.5981 162.191 46.4017C161.389 47.2052 160.445 47.8392 159.358 48.3035C158.289 48.7678 157.149 49 155.938 49H144.794C144.402 49 144.037 48.9285 143.699 48.7857C143.36 48.6428 143.057 48.4463 142.79 48.1963C142.54 47.9285 142.345 47.6248 142.202 47.2857C142.059 46.9464 141.988 46.5892 141.988 46.2142V21.7589C142.006 21.3839 142.086 21.0356 142.229 20.7143C142.371 20.375 142.567 20.0803 142.817 19.8303C143.066 19.5803 143.351 19.3838 143.672 19.241C144.01 19.0803 144.384 19 144.794 19C145.168 19 145.525 19.0713 145.863 19.2141C146.202 19.357 146.496 19.5625 146.745 19.8303C147.012 20.0803 147.217 20.375 147.36 20.7143C147.502 21.0534 147.573 21.4106 147.573 21.7856V31.2141ZM167.402 46.1874V21.8124C167.402 21.0268 167.669 20.3659 168.204 19.8303C168.756 19.2766 169.415 19 170.182 19C170.948 19 171.598 19.2766 172.132 19.8303C172.685 20.3659 172.97 21.0268 172.987 21.8124V46.1874C172.97 46.9732 172.685 47.6427 172.132 48.1963C171.598 48.732 170.948 49 170.182 49C169.415 49 168.756 48.732 168.204 48.1963C167.669 47.6427 167.402 46.9732 167.402 46.1874ZM176.809 21.8124C176.809 21.0268 177.076 20.3659 177.611 19.8303C178.163 19.2766 178.822 19 179.588 19C180.372 19 181.031 19.2766 181.566 19.8303C182.1 20.3659 182.368 21.0268 182.368 21.8124V37.0535C182.368 37.9106 182.528 38.7231 182.849 39.4909C183.187 40.2589 183.641 40.9374 184.211 41.5267C184.781 42.0982 185.45 42.5535 186.216 42.8928C187 43.232 187.837 43.4016 188.728 43.4016C189.601 43.4016 190.42 43.232 191.186 42.8928C191.952 42.5535 192.62 42.0982 193.191 41.5267C193.779 40.9552 194.233 40.2855 194.553 39.5177C194.892 38.7499 195.061 37.9285 195.061 37.0535V21.8124C195.061 21.0268 195.328 20.3659 195.863 19.8303C196.415 19.2766 197.074 19 197.84 19C198.624 19 199.284 19.2766 199.818 19.8303C200.37 20.3659 200.646 21.0268 200.646 21.8124V37.0535C200.646 37.9285 200.816 38.7499 201.154 39.5177C201.493 40.2855 201.947 40.9552 202.517 41.5267C203.087 42.0982 203.755 42.5535 204.521 42.8928C205.287 43.232 206.107 43.4016 206.98 43.4016C207.853 43.4016 208.672 43.241 209.438 42.9195C210.205 42.5803 210.873 42.1248 211.443 41.5535C212.031 40.9642 212.485 40.2855 212.806 39.5177C213.144 38.7499 213.313 37.9285 213.313 37.0535V21.8124C213.313 21.0268 213.581 20.3659 214.115 19.8303C214.667 19.2766 215.326 19 216.093 19C216.876 19 217.536 19.2766 218.07 19.8303C218.622 20.3659 218.899 21.0268 218.899 21.8124V46.2142C218.899 46.982 218.622 47.6427 218.07 48.1963C217.536 48.732 216.885 49 216.119 49C215.496 49 214.944 48.8303 214.463 48.491C213.981 48.1338 213.652 47.6695 213.474 47.0982C211.567 48.366 209.403 49 206.98 49C205.198 49 203.524 48.6517 201.956 47.9554C200.388 47.241 199.016 46.1696 197.84 44.7409C195.364 47.5802 192.326 49 188.728 49C187.106 49 185.565 48.6875 184.104 48.0623C182.662 47.4195 181.396 46.5624 180.31 45.4909C179.241 44.4018 178.386 43.1338 177.744 41.6874C177.121 40.2231 176.809 38.6784 176.809 37.0535V21.8124ZM223.254 21.7856C223.254 21.4106 223.326 21.0534 223.468 20.7143C223.611 20.375 223.807 20.0803 224.056 19.8303C224.306 19.5625 224.6 19.357 224.938 19.2141C225.277 19.0713 225.642 19 226.034 19C226.426 19 226.791 19.0713 227.13 19.2141C227.468 19.357 227.762 19.5625 228.011 19.8303C228.261 20.0803 228.457 20.375 228.599 20.7143C228.742 21.0534 228.813 21.4106 228.813 21.7856V31.2678L242.442 19.6963C242.959 19.232 243.573 19 244.286 19C244.678 19 245.043 19.0713 245.382 19.2141C245.72 19.357 246.014 19.5625 246.264 19.8303C246.513 20.0803 246.709 20.375 246.851 20.7143C247.012 21.0534 247.092 21.4106 247.092 21.7856C247.092 22.5536 246.816 23.2142 246.264 23.7677L234.318 33.9196L246.29 44.2053C246.825 44.7409 247.092 45.4106 247.092 46.2142C247.092 46.5892 247.012 46.9464 246.851 47.2857C246.709 47.6248 246.513 47.9285 246.264 48.1963C246.014 48.4463 245.72 48.6428 245.382 48.7857C245.043 48.9285 244.678 49 244.286 49C243.591 49 242.985 48.7766 242.469 48.3303L229.962 37.616L228.813 38.6071V46.2142C228.813 46.5892 228.742 46.9464 228.599 47.2857C228.457 47.6248 228.261 47.9285 228.011 48.1963C227.762 48.4463 227.468 48.6428 227.13 48.7857C226.791 48.9285 226.426 49 226.034 49C225.642 49 225.277 48.9285 224.938 48.7857C224.6 48.6428 224.306 48.4463 224.056 48.1963C223.807 47.9285 223.611 47.6248 223.468 47.2857C223.326 46.9464 223.254 46.5892 223.254 46.2142V21.7856ZM276.194 49C275.392 49 274.733 48.732 274.216 48.1963C273.7 47.6607 273.433 47.0089 273.415 46.2411C272.185 47.2052 270.885 47.9107 269.513 48.357C268.141 48.7857 266.654 49 265.05 49C263.144 49 261.345 48.6338 259.652 47.9017C257.959 47.1517 256.481 46.1427 255.216 44.8749C253.951 43.6072 252.944 42.1248 252.196 40.4286C251.466 38.7321 251.1 36.9285 251.1 35.0177V21.7856C251.1 21.0178 251.368 20.3659 251.902 19.8303C252.454 19.2766 253.123 19 253.907 19C254.673 19 255.323 19.2766 255.857 19.8303C256.41 20.3659 256.686 21.0178 256.686 21.7856V35.0177C256.686 36.1785 256.899 37.2678 257.327 38.2856C257.772 39.3034 258.369 40.1964 259.118 40.9642C259.884 41.7142 260.775 42.3123 261.79 42.7588C262.805 43.1875 263.892 43.4016 265.05 43.4016C266.19 43.4016 267.268 43.1875 268.284 42.7588C269.299 42.3123 270.19 41.7052 270.956 40.9374C271.722 40.1696 272.319 39.2856 272.747 38.2856C273.192 37.2678 273.415 36.1785 273.415 35.0177V21.7856C273.415 21.0178 273.682 20.3659 274.216 19.8303C274.769 19.2766 275.437 19 276.221 19C276.987 19 277.637 19.2766 278.171 19.8303C278.724 20.3659 279 21.0178 279 21.7856V46.2142C279 46.982 278.724 47.6427 278.171 48.1963C277.637 48.732 276.978 49 276.194 49Z" fill="#6B3E1D"/>
<path d="M70.0041 1.28158C68.6694 1.6618 62.2527 3.27773 60.5367 4.13323L53.3867 7.93542L62.4433 16.1593C66.7333 20.0565 68.354 19.0568 69.5933 18.3915C73.6926 16.2052 78.6499 18.2013 80.5566 22.6689C82.6539 27.8019 78.1733 32.4981 70.5466 33.125C68.64 33.7903 65.3987 45.7673 65.3033 48.809C58.63 51.1854 74.8366 52.8013 77.6966 52.6112C84.2746 52.0408 93.7125 45.5771 95.8099 40.7293C103.913 25.5205 94.3799 9.8365 83.8933 4.6085C79.8893 2.5173 73.6267 0.0458679 70.0041 1.28158Z" fill="#F5D7A3"/>
<path d="M65.5996 38.2296C63.3327 42.64 62.7557 46.8595 64.3108 47.6542C65.866 48.4489 68.9644 45.5178 71.2313 41.1074C73.4982 36.697 74.0752 32.4775 72.5201 31.6828C70.9649 30.8881 67.8665 33.8192 65.5996 38.2296Z" fill="#E9B277"/>
<path d="M63.2749 48.2738C62.2657 44.4641 59.6574 45.5766 69.5603 42.9686C69.5603 42.9686 80.047 50.5729 97.6831 31.0868C98.6926 34.8964 90.9032 49.3908 81.0003 51.9988C71.0973 54.6067 64.284 52.0835 63.2749 48.2738Z" fill="#E9B277"/>
<path d="M35.7499 10.7597C31.4599 12.5657 23.8332 19.5047 21.4499 24.0673C20.0199 26.8239 18.2086 30.9113 18.1133 35.4739C18.1133 41.6525 19.0666 42.603 21.9266 47.831C26.4073 52.4887 31.3645 58.8574 36.7032 59.7129C43.5672 60.7585 56.6278 57.7167 63.8731 47.831C67.2098 43.3635 69.1164 34.9986 68.1631 29.2953C68.1631 21.4058 63.4917 14.752 57.1998 11.7102C52.2425 9.33386 40.5165 8.66847 35.7499 10.7597ZM48.1431 25.0179C50.4311 25.9684 48.8763 24.5992 51.9565 29.2953C51.9565 32.6223 51.986 33.858 48.84 36.8997C45.7893 39.9415 45.1878 40.7019 41.9465 40.7019C38.6098 40.7019 39.2772 41.0821 36.7032 37.8503C36.256 33.5728 36.7032 34.9986 38.1332 30.2459C43.3765 26.4437 43.5672 23.3069 48.1431 25.0179Z" fill="#F5D7A3"/>
<path d="M34.796 37.0715C37.9484 39.9231 36.36 28.4275 40.516 25.6649C44.2622 23.1747 54.816 30.4176 51.956 24.2391C49.4308 20.8326 43.3461 20.2729 38.6094 23.7638C33.8727 27.2546 32.2708 33.6651 34.796 37.0715Z" fill="#E9B277"/>
<path d="M44.7739 60.0859C31.6124 60.7149 21.2884 54.4791 20.7256 42.7711C19.2956 40.3947 28.2757 55.0042 41.4372 54.3753C54.5987 53.7462 62.6721 38.6759 68.8687 30.121C73.6354 37.7254 57.9354 59.4568 44.7739 60.0859Z" fill="#E9B277"/>
<path d="M69.6147 0.16779C63.9002 0.664043 58.2596 2.99827 53.9461 6.65584L52.7296 7.6851L51.2918 7.35426C49.6951 7.01219 44.8171 6.70732 42.378 7.01219C41.3679 7.13846 40.5985 7.24647 39.3293 7.42779C37.1951 7.73267 38.2039 7.92404 28.7476 8.0527C20.0838 8.18135 14.1114 8.43867 13.8348 8.69599C13.798 8.75113 13.8717 8.78789 14.0192 8.78789C14.1667 8.78789 14.8118 8.87979 15.4754 8.97169C17.5953 9.26576 22.6645 9.55985 29.7983 9.81716L33.1716 9.94577L31.9365 10.6626C29.9457 11.8205 28.3789 12.9968 26.812 14.504L25.3374 15.9192L15.1989 16.0295C6.1112 16.1214 2.86691 16.2501 0.691751 16.6177C-2.49725 17.1323 5.79784 17.941 16.1759 18.1064L23.2175 18.2167L22.941 18.6027C21.8166 20.1282 20.1576 22.7565 19.7151 23.749L19.1621 24.9621L15.1436 24.9804C12.95 24.9804 10.9777 25.0172 10.7749 25.054C10.5721 25.0723 9.22647 25.1642 7.78865 25.2194C4.26785 25.3848 0.931386 25.7708 1.15258 25.9913C1.17102 26.0281 1.94523 26.1751 2.84847 26.3222C5.02363 26.6898 8.3048 26.9471 13.7058 27.1676C16.139 27.2779 18.1298 27.3698 18.1667 27.4066C18.1851 27.4249 18.0009 28.1785 17.7796 29.0975C17.54 29.9981 17.282 31.3031 17.2267 31.9647L17.0976 33.1778L13.2634 33.3064C5.8347 33.5454 4.26786 34.0968 9.0237 34.7952C10.3325 34.9974 15.6229 35.4385 16.7842 35.4385C16.8395 35.4385 16.9501 36.4126 17.0054 37.5889C17.3556 43.7278 19.9916 49.2049 24.8213 53.8182C28.2683 57.1266 32.2868 59.4424 36.4896 60.5636C39.0888 61.2436 43.6234 61.354 46.794 60.8209C50.6835 60.1592 55.0338 58.4866 57.9647 56.5201C59.384 55.5827 62.057 53.3404 62.5177 52.697L62.8865 52.2009L64.0662 52.7338C66.9049 54.0204 70.5364 54.7372 74.2231 54.7372C79.4397 54.7372 84.2509 53.175 88.7303 50.0137C90.6289 48.6535 93.5966 45.6944 94.9792 43.7461C97.1729 40.6951 98.9423 36.4861 99.6611 32.6448C100.122 30.2555 100.103 24.4106 99.6611 22.15C98.5733 16.7647 96.1223 12.1698 92.251 8.32839C87.4398 3.5129 81.4674 0.774321 74.4443 0.14941C72.1401 -0.0527668 71.9742 -0.0527668 69.6147 0.16779ZM76.306 3.01665C83.9006 4.30323 90.0943 8.75113 93.4861 15.3494C95.4035 19.0622 95.9374 21.4883 95.7906 25.973C95.6609 30.237 94.9792 32.8837 93.1358 36.3759C89.4307 43.3969 81.5596 48.1205 73.5779 48.1205C71.3475 48.1205 66.9418 47.2567 67.1261 46.8523C67.163 46.7972 67.6239 45.8782 68.1584 44.8305C69.8544 41.559 70.4626 39.2982 71.0709 34.2806C71.1631 33.4351 71.1815 33.4167 71.6608 33.5454C71.9373 33.6373 72.9881 33.6925 74.0018 33.6925C75.7531 33.6925 75.919 33.6557 77.283 33.0123C78.8683 32.2588 80.4905 30.8436 81.2278 29.5938C83.108 26.414 82.6103 22.3521 80.0296 19.5768C78.8315 18.3269 77.8729 17.7021 76.2507 17.1506C73.8175 16.3419 71.5502 16.5993 68.9511 17.9962C68.2138 18.4005 67.5686 18.6945 67.5502 18.6762C64.7851 14.5592 62.3518 12.1698 58.7573 10.0377C58.0753 9.63333 57.043 9.11872 56.4716 8.87979L55.4393 8.45705L56.8772 7.42779C60.4532 4.89138 64.8772 3.20044 69.1722 2.72258C70.8497 2.52039 74.2599 2.66743 76.306 3.01665ZM50.8678 10.0745C55.1075 10.9383 58.7389 12.9049 61.4671 15.8089C67.1446 21.8559 67.845 30.4024 63.3657 39.3901C59.5684 47.0362 52.4715 52.9177 44.4529 55.0497C42.8492 55.4908 42.3147 55.5459 39.2547 55.5459C35.3099 55.5643 33.9643 55.307 31.0334 53.9285C28.7292 52.8441 27.2544 51.8148 25.5033 50.0688C23.7521 48.3043 22.7382 46.8707 21.6138 44.5181C20.3787 41.9081 19.881 39.7394 19.7704 36.5229C19.5308 29.7775 21.706 24.0247 26.5908 18.5291C30.9043 13.6769 36.8902 10.0377 42.378 9.7561C47.8659 9.4745 49.1351 9.72524 50.8678 10.0745ZM76.5457 20.3303C77.7438 20.8634 78.9605 22.058 79.4397 23.1609C80.6563 25.973 79.1079 29.3732 75.9743 30.8068C74.647 31.4133 72.6193 31.4501 71.6608 30.8987C71.0709 30.5495 71.0525 30.5128 70.9234 28.9872C70.7944 27.2044 70.2783 24.9069 69.5778 22.977C68.988 21.3597 69.0617 21.2493 70.7575 20.4774C72.6931 19.6135 74.7945 19.5584 76.5457 20.3303ZM68.5639 33.233C68.14 38.2322 66.8128 42.1839 64.3243 46.0068C59.9923 52.6051 54.0936 56.8142 46.9968 58.3397C45.1534 58.7441 39.1994 58.7992 38.2408 58.45C37.7431 58.2478 37.78 58.2293 38.7016 58.3213C39.9552 58.4315 42.7386 58.1191 44.6926 57.678C50.3148 56.373 54.9416 53.7814 59.255 49.5174C64.398 44.4446 67.4027 38.5814 68.4718 31.5052C68.7114 30.0348 68.7667 31.0641 68.5639 33.233ZM97.3206 32.9757C96.1585 37.5706 94.4446 40.9708 91.7718 43.9667C88.7118 47.3853 85.0989 49.7931 81.0803 51.1164C76.306 52.6787 70.1861 52.4765 65.8174 50.5834L64.6745 50.0871L65.0616 49.6828L65.4302 49.2968L67.1261 49.7196C71.9189 50.9326 76.5641 50.7305 81.4121 49.1315C83.661 48.3779 84.8961 47.7713 87.0897 46.3377C92.0482 43.0844 95.8639 37.7176 97.3206 31.9647C97.4312 31.542 97.578 31.2111 97.6333 31.2663C97.6705 31.3214 97.5418 32.0934 97.3206 32.9757Z" fill="#6B3E1D"/>
<path d="M45.1347 23.3998C41.4296 24.3005 37.7981 27.3147 36.1208 30.862C34.5539 34.2255 34.941 37.681 37.153 39.9416C38.4617 41.2833 39.3281 41.5958 41.7429 41.5774C43.4941 41.5774 43.9365 41.5039 45.0426 41.0812C49.4113 39.3719 52.545 35.7327 53.3008 31.5053C53.5589 30.1085 53.2639 27.9581 52.6372 26.5428C52.0289 25.1827 50.6647 23.8226 49.485 23.4366C48.4158 23.069 46.5725 23.0507 45.1347 23.3998ZM48.9689 26.5979C49.9089 27.0206 50.6647 28.105 50.886 29.3181C51.5127 32.6633 48.3238 37.1663 44.3237 38.5815C39.494 40.2909 36.1208 36.6884 38.3328 32.2038C40.2867 28.2337 45.9643 25.2562 48.9689 26.5979Z" fill="#6B3E1D"/>
<path d="M61.9339 67.6829C80.3617 67.6829 95.3004 66.4062 95.3004 64.8313C95.3004 63.2563 80.3617 61.9796 61.9339 61.9796C43.5061 61.9796 28.5674 63.2563 28.5674 64.8313C28.5674 66.4062 43.5061 67.6829 61.9339 67.6829Z" fill="#F0E7D5"/>
<path d="M24.2769 60.0785C32.8569 67.6829 46.6801 66.2571 17.1269 66.2571C9.50025 66.2571 4.25694 66.2571 3.78027 62.4549C3.78027 60.0925 10.4536 50.573 13.7903 51.0483C16.1736 51.0483 18.0803 55.3258 24.2769 60.0785Z" fill="#F0E7D5"/>
<path d="M11.3093 49.6093C9.41063 50.3261 7.69632 52.5133 7.41981 54.535C7.32764 55.1416 7.23548 55.2886 6.92211 55.2886C6.22164 55.2886 4.71009 56.1341 3.99118 56.9244C2.9036 58.1191 2.5165 59.1668 2.49807 60.9128C2.47963 62.2545 2.53493 62.4751 3.03264 63.3022C3.76998 64.4785 5.15249 65.5078 6.35067 65.7651C7.60415 66.0407 10.572 66.2246 10.9959 66.0592C11.2356 65.9488 10.8853 65.7651 9.6687 65.3791C6.2032 64.2395 4.78382 62.9346 4.78382 60.8577C4.78382 58.5051 6.71934 57.292 9.09726 58.1375L9.79778 58.3764L9.6687 57.8066C9.2263 55.6378 9.3922 54.388 10.3323 53.1014C11.0328 52.1273 12.1019 51.6126 13.4476 51.6126C16.4338 51.6126 18.2403 54.2777 17.1711 57.0898L16.8209 57.9904L18.4983 57.9721C19.9914 57.9537 20.2864 58.0088 21.245 58.4683C23.1067 59.3873 23.7887 61.3906 22.8671 63.2471C22.6643 63.6514 22.5169 64.0374 22.5537 64.0557C22.5906 64.0925 23.1436 63.9639 23.7703 63.7433C26.3142 62.8794 27.9916 63.0449 30.9594 64.4234C35.0517 66.3165 38.4987 66.5921 41.5771 65.232C42.9965 64.6071 42.591 64.4049 39.6048 64.2763C36.4526 64.1293 34.9779 63.78 32.047 62.4567C29.5769 61.3172 28.3234 60.9863 26.6091 60.9863H25.3003L25.1898 60.2695C25.0607 59.277 24.5445 58.2661 23.7519 57.4758C23.033 56.759 21.3556 56.0238 20.4708 56.0238C19.973 56.0238 19.9546 55.9686 19.844 54.9762C19.6044 52.697 17.8347 50.3812 15.7333 49.6093C14.4246 49.113 12.5812 49.113 11.3093 49.6093Z" fill="#6B3E1D"/>
</svg>
